<svg width="64" height="64" viewBox="0 0 64 64" fill="none" xmlns="http://www.w3.org/2000/svg">
<path d="M41 44C41 41.653 41 39.865 41 39.865C47.525 36.572 52 29.808 52 22C52 10.954 43.046 2 32 2C20.954 2 12 10.954 12 22C12 29.808 16.475 36.572 23 39.865V44H41Z" fill="#FFC239"/>
<path d="M32 2C26.243 2 21.07 4.446 17.421 8.339C19.709 22.845 31.169 34.301 45.677 36.582C49.566 32.934 52 27.753 52 22C52 10.954 43.046 2 32 2Z" fill="#FFD55D"/>
<path d="M46.4472 15.7722C47.6406 14.4785 46.5145 11.4986 43.932 9.11634C41.3494 6.73409 38.2885 5.85165 37.0951 7.14535C35.9017 8.43904 37.0279 11.419 39.6104 13.8012C42.1929 16.1835 45.2539 17.0659 46.4472 15.7722Z" fill="#FFF7DF"/>
<path d="M30 44H28V28.414L25.293 25.707L26.707 24.293L29.707 27.293C29.895 27.48 30 27.735 30 28V44Z" fill="#F1F1F3"/>
<path d="M36 44H34V28C34 27.735 34.105 27.48 34.293 27.293L37.293 24.293L38.707 25.707L36 28.414V44Z" fill="#F1F1F3"/>
<path d="M59.965 12.21C61.775 11.175 63 9.23 63 7C63 3.691 60.309 1 57 1C54.766 1 52.817 2.229 51.785 4.045C46.504 4.369 39.374 7.763 32.002 13.29C20.734 4.851 10.285 1.615 5.95 5.95C2.972 8.928 3.41 14.685 7.151 22.199C6.441 22.921 6 23.909 6 25C6 27.206 7.794 29 10 29C12.206 29 14 27.206 14 25C14 22.794 12.206 21 10 21C9.608 21 9.236 21.074 8.877 21.18C5.701 14.737 5.122 9.606 7.364 7.364C10.532 4.197 19.656 6.645 30.358 14.55C27.559 16.758 24.744 19.257 22 22C11.471 32.53 4.515 44.113 4.045 51.785C2.229 52.817 1 54.766 1 57C1 60.309 3.691 63 7 63C9.232 63 11.18 61.772 12.213 59.959C15.476 59.756 19.546 58.365 24.012 55.905L27.759 54.133L26.904 52.325L23.103 54.125C19.231 56.256 15.752 57.538 12.926 57.893C12.97 57.6 13 57.304 13 57C13 53.691 10.309 51 7 51C6.694 51 6.395 51.03 6.101 51.075C6.993 43.943 13.749 33.08 23.414 23.415C26.222 20.607 29.131 18.056 32.02 15.811C34.811 17.988 37.689 20.519 40.585 23.415C44.665 27.495 48.313 31.881 51.199 36.152C50.461 36.877 50 37.885 50 39C50 41.206 51.794 43 54 43C54.392 43 54.764 42.926 55.123 42.82C58.299 49.263 58.877 54.394 56.636 56.636C54.151 59.119 48.267 58.18 40.856 54.103L37.946 52.673L37.064 54.468L39.932 55.876C44.882 58.601 49.224 59.984 52.603 59.984C54.902 59.984 56.755 59.343 58.049 58.049C61.027 55.071 60.589 49.314 56.848 41.8C57.559 41.079 58 40.091 58 39C58 36.794 56.206 35 54 35C53.632 35 53.282 35.066 52.943 35.16C52.238 34.111 51.491 33.057 50.7 32.001C56.306 24.51 59.643 17.377 59.965 12.21ZM12 25C12 26.103 11.103 27 10 27C8.897 27 8 26.103 8 25C8 23.897 8.897 23 10 23C11.103 23 12 23.897 12 25ZM11 57C11 59.206 9.206 61 7 61C4.794 61 3 59.206 3 57C3 54.794 4.794 53 7 53C9.206 53 11 54.794 11 57ZM56 39C56 40.103 55.103 41 54 41C52.897 41 52 40.103 52 39C52 37.897 52.897 37 54 37C55.103 37 56 37.897 56 39ZM57 3C59.206 3 61 4.794 61 7C61 9.206 59.206 11 57 11C54.794 11 53 9.206 53 7C53 4.794 54.794 3 57 3ZM33.663 14.564C40.143 9.787 46.408 6.685 51.075 6.102C51.03 6.395 51 6.694 51 7C51 10.309 53.691 13 57 13C57.302 13 57.597 12.97 57.888 12.927C57.303 17.502 54.243 23.826 49.435 30.352C47.197 27.513 44.689 24.69 42 22C39.239 19.24 36.434 16.75 33.663 14.564Z" fill="#5490F5"/>
<path d="M23 48V51H41C41 50.067 41 49.041 41 48H23Z" fill="#393A3A"/>
<path d="M39 55C39 58.866 35.866 62 32 62C28.134 62 25 58.866 25 55H39Z" fill="#393A3A"/>
<path d="M42 48H22C21.448 48 21 47.552 21 47V45C21 44.448 21.448 44 22 44H42C42.552 44 43 44.448 43 45V47C43 47.552 42.552 48 42 48Z" fill="#D5D6D8"/>
<path d="M42 44H23V45C23 46.105 23.895 47 25 47H43V45C43 44.448 42.552 44 42 44Z" fill="#F1F1F3"/>
<path d="M42 55H22C21.448 55 21 54.552 21 54V52C21 51.448 21.448 51 22 51H42C42.552 51 43 51.448 43 52V54C43 54.552 42.552 55 42 55Z" fill="#D5D6D8"/>
<path d="M42 51H23V52C23 53.105 23.895 54 25 54H43V52C43 51.448 42.552 51 42 51Z" fill="#F1F1F3"/>
<path d="M57 1C54.766 1 52.817 2.229 51.785 4.045C46.504 4.369 39.374 7.763 32.002 13.29C25.054 8.086 18.423 4.87 13.339 4.178C13.413 4.868 13.502 5.553 13.6 6.235C17.954 6.976 23.861 9.751 30.359 14.55C27.559 16.758 24.744 19.257 22 22C21.159 22.841 20.351 23.689 19.557 24.541C19.885 25.164 20.228 25.777 20.578 26.385C21.494 25.386 22.435 24.393 23.414 23.414C26.222 20.606 29.131 18.055 32.02 15.81C34.811 17.987 37.689 20.518 40.585 23.414C44.665 27.494 48.313 31.88 51.199 36.151C50.461 36.877 50 37.885 50 39C50 41.206 51.794 43 54 43C54.392 43 54.764 42.926 55.123 42.82C57.299 47.233 58.254 51.03 57.92 53.706C58.574 53.847 59.234 53.971 59.896 54.09C60.34 50.955 59.319 46.765 56.848 41.802C57.559 41.079 58 40.091 58 39C58 36.794 56.206 35 54 35C53.632 35 53.282 35.066 52.943 35.16C52.238 34.111 51.491 33.057 50.7 32.001C56.306 24.511 59.643 17.378 59.965 12.21C61.775 11.175 63 9.23 63 7C63 3.691 60.309 1 57 1ZM54 37C55.103 37 56 37.897 56 39C56 40.103 55.103 41 54 41C52.897 41 52 40.103 52 39C52 37.897 52.897 37 54 37ZM49.435 30.352C47.197 27.513 44.689 24.69 42 22C39.239 19.239 36.435 16.75 33.664 14.563C40.144 9.786 46.409 6.684 51.076 6.101C51.03 6.395 51 6.694 51 7C51 10.309 53.691 13 57 13C57.302 13 57.597 12.97 57.888 12.927C57.303 17.502 54.243 23.826 49.435 30.352ZM57 11C54.794 11 53 9.206 53 7C53 4.794 54.794 3 57 3C59.206 3 61 4.794 61 7C61 9.206 59.206 11 57 11Z" fill="#81B4FC"/>
</svg>